<svg width="32" height="32" viewBox="0 0 32 32" fill="none" xmlns="http://www.w3.org/2000/svg">
  <defs>
    <linearGradient id="globe-gradient" x1="0%" y1="0%" x2="100%" y2="100%">
      <stop offset="0%" style="stop-color:#3b82f6;stop-opacity:1" />
      <stop offset="100%" style="stop-color:#1d4ed8;stop-opacity:1" />
    </linearGradient>
  </defs>
  
  <!-- Globe background -->
  <circle cx="16" cy="16" r="15" fill="url(#globe-gradient)" stroke="#1e40af" stroke-width="2"/>
  
  <!-- Globe grid lines -->
  <g stroke="#ffffff" stroke-width="0.5" fill="none" opacity="0.6">
    <!-- Horizontal lines -->
    <ellipse cx="16" cy="16" rx="15" ry="5"/>
    <ellipse cx="16" cy="16" rx="15" ry="10"/>
    <ellipse cx="16" cy="16" rx="15" ry="15"/>
    
    <!-- Vertical lines -->
    <ellipse cx="16" cy="16" rx="5" ry="15"/>
    <ellipse cx="16" cy="16" rx="10" ry="15"/>
    <line x1="16" y1="1" x2="16" y2="31"/>
  </g>
  
  <!-- Connection points -->
  <g fill="#ffffff" opacity="0.8">
    <circle cx="8" cy="12" r="1"/>
    <circle cx="24" cy="10" r="1"/>
    <circle cx="12" cy="20" r="1"/>
    <circle cx="20" cy="22" r="1"/>
    <circle cx="16" cy="8" r="1"/>
  </g>
  
  <!-- Connection lines -->
  <g stroke="#ffffff" stroke-width="0.5" fill="none" opacity="0.4">
    <path d="M8,12 Q16,6 24,10"/>
    <path d="M12,20 Q16,16 20,22"/>
    <path d="M16,8 Q20,12 24,10"/>
  </g>
</svg>